<svg width="500" height="500" viewBox="0 0 500 500" fill="none" xmlns="http://www.w3.org/2000/svg">
<rect width="500" height="500" rx="100" fill="#EFFFFB"/>
<rect x="51" y="51" width="398" height="398" rx="75" fill="url(#paint0_linear_83_14)"/>
<path fill-rule="evenodd" clip-rule="evenodd" d="M250 70C214.654 70 186 98.6537 186 134V186H134C98.6538 186 70 214.654 70 250C70 285.346 98.6538 314 134 314H186V366C186 401.346 214.654 430 250 430C285.346 430 314 401.346 314 366V314H366C401.346 314 430 285.346 430 250C430 214.654 401.346 186 366 186H314V134C314 98.6538 285.346 70 250 70Z" fill="#EFFFFB"/>
<path fill-rule="evenodd" clip-rule="evenodd" d="M250 153C230.952 153 215.511 168.441 215.511 187.489V215.511H187.489C168.441 215.511 153 230.952 153 250C153 269.048 168.441 284.489 187.489 284.489H215.511V312.511C215.511 331.559 230.952 347 250 347C269.048 347 284.489 331.559 284.489 312.511V284.489H312.511C331.559 284.489 347 269.048 347 250C347 230.952 331.559 215.511 312.511 215.511H284.489V187.489C284.489 168.441 269.048 153 250 153Z" fill="#50D890"/>
<defs>
<linearGradient id="paint0_linear_83_14" x1="449" y1="250" x2="51" y2="250" gradientUnits="userSpaceOnUse">
<stop stop-color="#50D890"/>
<stop offset="1" stop-color="#0CD8CC"/>
</linearGradient>
</defs>
</svg>
