<svg width="354" height="37" viewBox="0 0 354 37" fill="none" xmlns="http://www.w3.org/2000/svg">
<path d="M2 19.5L352 19.5" stroke="#97A2AA" stroke-width="4" stroke-linecap="round"/>
<rect x="113" width="130" height="37" rx="18.5" fill="#1F1F1F"/>
<path d="M131.288 24.16C130.2 24.16 129.245 23.92 128.424 23.44C127.613 22.96 126.984 22.288 126.536 21.424C126.088 20.5493 125.864 19.5253 125.864 18.352C125.864 17.4667 125.992 16.672 126.248 15.968C126.504 15.2533 126.867 14.6453 127.336 14.144C127.816 13.632 128.387 13.2427 129.048 12.976C129.72 12.6987 130.467 12.56 131.288 12.56C132.387 12.56 133.341 12.8 134.152 13.28C134.963 13.7493 135.592 14.416 136.04 15.28C136.488 16.144 136.712 17.1627 136.712 18.336C136.712 19.2213 136.584 20.0213 136.328 20.736C136.072 21.4507 135.704 22.064 135.224 22.576C134.755 23.088 134.184 23.4827 133.512 23.76C132.851 24.0267 132.109 24.16 131.288 24.16ZM131.288 22.4C131.981 22.4 132.568 22.24 133.048 21.92C133.539 21.6 133.912 21.136 134.168 20.528C134.435 19.92 134.568 19.1947 134.568 18.352C134.568 17.072 134.28 16.08 133.704 15.376C133.139 14.672 132.333 14.32 131.288 14.32C130.605 14.32 130.019 14.48 129.528 14.8C129.037 15.1093 128.659 15.568 128.392 16.176C128.136 16.7733 128.008 17.4987 128.008 18.352C128.008 19.6213 128.296 20.6133 128.872 21.328C129.448 22.0427 130.253 22.4 131.288 22.4ZM141.435 24.16C140.784 24.16 140.245 24.0427 139.819 23.808C139.392 23.5627 139.072 23.2 138.859 22.72C138.656 22.24 138.555 21.6427 138.555 20.928V17.056C138.555 16.7147 138.64 16.464 138.811 16.304C138.981 16.1333 139.227 16.048 139.547 16.048C139.867 16.048 140.112 16.1333 140.283 16.304C140.464 16.464 140.555 16.7147 140.555 17.056V20.96C140.555 21.5147 140.667 21.9253 140.891 22.192C141.115 22.4587 141.472 22.592 141.963 22.592C142.496 22.592 142.933 22.4107 143.275 22.048C143.616 21.6747 143.787 21.184 143.787 20.576V17.056C143.787 16.7147 143.872 16.464 144.043 16.304C144.213 16.1333 144.459 16.048 144.779 16.048C145.099 16.048 145.344 16.1333 145.515 16.304C145.696 16.464 145.786 16.7147 145.786 17.056V23.104C145.786 23.7867 145.461 24.128 144.811 24.128C144.501 24.128 144.261 24.0427 144.091 23.872C143.92 23.6907 143.835 23.4347 143.835 23.104V21.888L144.059 22.368C143.835 22.944 143.493 23.3867 143.035 23.696C142.587 24.0053 142.053 24.16 141.435 24.16ZM156.068 24.16C155.183 24.16 154.42 23.9947 153.78 23.664C153.14 23.3333 152.644 22.864 152.292 22.256C151.951 21.648 151.78 20.928 151.78 20.096C151.78 19.2853 151.945 18.576 152.276 17.968C152.617 17.36 153.081 16.8853 153.668 16.544C154.265 16.192 154.943 16.016 155.7 16.016C156.255 16.016 156.751 16.1067 157.188 16.288C157.636 16.4693 158.015 16.7307 158.324 17.072C158.644 17.4133 158.884 17.8293 159.044 18.32C159.215 18.8 159.3 19.344 159.3 19.952C159.3 20.144 159.231 20.2933 159.092 20.4C158.964 20.496 158.777 20.544 158.532 20.544H153.396V19.392H157.892L157.636 19.632C157.636 19.1413 157.561 18.7307 157.412 18.4C157.273 18.0693 157.065 17.8187 156.788 17.648C156.521 17.4667 156.185 17.376 155.78 17.376C155.332 17.376 154.948 17.4827 154.628 17.696C154.319 17.8987 154.079 18.192 153.908 18.576C153.748 18.9493 153.668 19.3973 153.668 19.92V20.032C153.668 20.9067 153.871 21.5627 154.276 22C154.692 22.4267 155.3 22.64 156.1 22.64C156.377 22.64 156.687 22.608 157.028 22.544C157.38 22.4693 157.711 22.3467 158.02 22.176C158.244 22.048 158.441 21.9947 158.612 22.016C158.783 22.0267 158.916 22.0853 159.012 22.192C159.119 22.2987 159.183 22.432 159.204 22.592C159.225 22.7413 159.193 22.896 159.108 23.056C159.033 23.216 158.9 23.3547 158.708 23.472C158.335 23.7067 157.903 23.8827 157.412 24C156.932 24.1067 156.484 24.16 156.068 24.16ZM161.876 24.128C161.556 24.128 161.31 24.0427 161.14 23.872C160.969 23.6907 160.884 23.4347 160.884 23.104V17.056C160.884 16.7253 160.969 16.4747 161.14 16.304C161.31 16.1333 161.55 16.048 161.86 16.048C162.169 16.048 162.409 16.1333 162.58 16.304C162.75 16.4747 162.836 16.7253 162.836 17.056V18.144L162.66 17.744C162.894 17.1787 163.257 16.752 163.748 16.464C164.249 16.1653 164.814 16.016 165.444 16.016C166.073 16.016 166.59 16.1333 166.996 16.368C167.401 16.6027 167.705 16.96 167.908 17.44C168.11 17.9093 168.212 18.5067 168.212 19.232V23.104C168.212 23.4347 168.126 23.6907 167.956 23.872C167.785 24.0427 167.54 24.128 167.22 24.128C166.9 24.128 166.649 24.0427 166.468 23.872C166.297 23.6907 166.212 23.4347 166.212 23.104V19.328C166.212 18.72 166.094 18.2773 165.86 18C165.636 17.7227 165.284 17.584 164.804 17.584C164.217 17.584 163.748 17.7707 163.396 18.144C163.054 18.5067 162.884 18.992 162.884 19.6V23.104C162.884 23.7867 162.548 24.128 161.876 24.128ZM173.827 24.16C173.134 24.16 172.552 24.0427 172.083 23.808C171.624 23.5733 171.283 23.232 171.059 22.784C170.835 22.3253 170.723 21.76 170.723 21.088V17.68H169.891C169.635 17.68 169.438 17.616 169.299 17.488C169.16 17.3493 169.091 17.1627 169.091 16.928C169.091 16.6827 169.16 16.496 169.299 16.368C169.438 16.24 169.635 16.176 169.891 16.176H170.723V14.72C170.723 14.3893 170.808 14.1387 170.979 13.968C171.16 13.7973 171.411 13.712 171.731 13.712C172.051 13.712 172.296 13.7973 172.467 13.968C172.638 14.1387 172.723 14.3893 172.723 14.72V16.176H174.419C174.675 16.176 174.872 16.24 175.011 16.368C175.15 16.496 175.219 16.6827 175.219 16.928C175.219 17.1627 175.15 17.3493 175.011 17.488C174.872 17.616 174.675 17.68 174.419 17.68H172.723V20.976C172.723 21.488 172.835 21.872 173.059 22.128C173.283 22.384 173.646 22.512 174.147 22.512C174.328 22.512 174.488 22.496 174.627 22.464C174.766 22.432 174.888 22.4107 174.995 22.4C175.123 22.3893 175.23 22.432 175.315 22.528C175.4 22.6133 175.443 22.7947 175.443 23.072C175.443 23.2853 175.406 23.4773 175.331 23.648C175.267 23.808 175.144 23.92 174.963 23.984C174.824 24.0267 174.643 24.064 174.419 24.096C174.195 24.1387 173.998 24.16 173.827 24.16ZM177.408 24.128C177.077 24.128 176.821 24.0427 176.64 23.872C176.469 23.6907 176.384 23.4347 176.384 23.104V17.056C176.384 16.7253 176.469 16.4747 176.64 16.304C176.81 16.1333 177.05 16.048 177.36 16.048C177.669 16.048 177.909 16.1333 178.08 16.304C178.25 16.4747 178.336 16.7253 178.336 17.056V18.064H178.176C178.325 17.424 178.618 16.9387 179.056 16.608C179.493 16.2773 180.074 16.08 180.8 16.016C181.024 15.9947 181.2 16.0533 181.328 16.192C181.466 16.32 181.546 16.5227 181.568 16.8C181.589 17.0667 181.525 17.2853 181.376 17.456C181.237 17.616 181.024 17.712 180.736 17.744L180.384 17.776C179.733 17.84 179.242 18.0427 178.912 18.384C178.581 18.7147 178.416 19.184 178.416 19.792V23.104C178.416 23.4347 178.33 23.6907 178.16 23.872C177.989 24.0427 177.738 24.128 177.408 24.128ZM186.38 24.16C185.495 24.16 184.732 23.9947 184.092 23.664C183.452 23.3333 182.956 22.864 182.604 22.256C182.263 21.648 182.092 20.928 182.092 20.096C182.092 19.2853 182.258 18.576 182.588 17.968C182.93 17.36 183.394 16.8853 183.98 16.544C184.578 16.192 185.255 16.016 186.012 16.016C186.567 16.016 187.063 16.1067 187.5 16.288C187.948 16.4693 188.327 16.7307 188.636 17.072C188.956 17.4133 189.196 17.8293 189.356 18.32C189.527 18.8 189.612 19.344 189.612 19.952C189.612 20.144 189.543 20.2933 189.404 20.4C189.276 20.496 189.09 20.544 188.844 20.544H183.708V19.392H188.204L187.948 19.632C187.948 19.1413 187.874 18.7307 187.724 18.4C187.586 18.0693 187.378 17.8187 187.1 17.648C186.834 17.4667 186.498 17.376 186.092 17.376C185.644 17.376 185.26 17.4827 184.94 17.696C184.631 17.8987 184.391 18.192 184.22 18.576C184.06 18.9493 183.98 19.3973 183.98 19.92V20.032C183.98 20.9067 184.183 21.5627 184.588 22C185.004 22.4267 185.612 22.64 186.412 22.64C186.69 22.64 186.999 22.608 187.34 22.544C187.692 22.4693 188.023 22.3467 188.332 22.176C188.556 22.048 188.754 21.9947 188.924 22.016C189.095 22.0267 189.228 22.0853 189.324 22.192C189.431 22.2987 189.495 22.432 189.516 22.592C189.538 22.7413 189.506 22.896 189.42 23.056C189.346 23.216 189.212 23.3547 189.02 23.472C188.647 23.7067 188.215 23.8827 187.724 24C187.244 24.1067 186.796 24.16 186.38 24.16ZM199.156 24.16C198.335 24.16 197.62 23.9947 197.012 23.664C196.404 23.3227 195.935 22.8427 195.604 22.224C195.273 21.6053 195.108 20.88 195.108 20.048C195.108 19.4187 195.199 18.8587 195.38 18.368C195.572 17.8667 195.844 17.4453 196.196 17.104C196.548 16.752 196.975 16.4853 197.476 16.304C197.977 16.112 198.537 16.016 199.156 16.016C199.508 16.016 199.887 16.064 200.292 16.16C200.708 16.256 201.097 16.416 201.46 16.64C201.631 16.7467 201.743 16.8747 201.796 17.024C201.849 17.1733 201.86 17.328 201.828 17.488C201.796 17.6373 201.727 17.7707 201.62 17.888C201.524 17.9947 201.401 18.064 201.252 18.096C201.103 18.1173 200.937 18.08 200.756 17.984C200.521 17.8453 200.281 17.744 200.036 17.68C199.791 17.6053 199.556 17.568 199.332 17.568C198.98 17.568 198.671 17.6267 198.404 17.744C198.137 17.8507 197.908 18.0107 197.716 18.224C197.535 18.4267 197.396 18.6827 197.3 18.992C197.204 19.3013 197.156 19.6587 197.156 20.064C197.156 20.8533 197.343 21.4773 197.716 21.936C198.1 22.384 198.639 22.608 199.332 22.608C199.556 22.608 199.785 22.576 200.02 22.512C200.265 22.448 200.511 22.3467 200.756 22.208C200.937 22.112 201.097 22.08 201.236 22.112C201.385 22.144 201.508 22.2187 201.604 22.336C201.7 22.4427 201.759 22.576 201.78 22.736C201.801 22.8853 201.78 23.0347 201.716 23.184C201.663 23.3333 201.556 23.456 201.396 23.552C201.044 23.7653 200.671 23.92 200.276 24.016C199.881 24.112 199.508 24.16 199.156 24.16ZM206.499 24.16C205.688 24.16 204.984 23.9947 204.387 23.664C203.789 23.3333 203.325 22.864 202.995 22.256C202.664 21.6373 202.499 20.912 202.499 20.08C202.499 19.4507 202.589 18.8907 202.771 18.4C202.963 17.8987 203.235 17.472 203.587 17.12C203.939 16.7573 204.36 16.4853 204.851 16.304C205.341 16.112 205.891 16.016 206.499 16.016C207.309 16.016 208.013 16.1813 208.611 16.512C209.208 16.8427 209.672 17.312 210.003 17.92C210.333 18.528 210.499 19.248 210.499 20.08C210.499 20.7093 210.403 21.2747 210.211 21.776C210.029 22.2773 209.763 22.7093 209.411 23.072C209.059 23.424 208.637 23.696 208.147 23.888C207.656 24.0693 207.107 24.16 206.499 24.16ZM206.499 22.64C206.893 22.64 207.24 22.544 207.539 22.352C207.837 22.16 208.067 21.8773 208.227 21.504C208.397 21.12 208.483 20.6453 208.483 20.08C208.483 19.2267 208.301 18.592 207.939 18.176C207.576 17.7493 207.096 17.536 206.499 17.536C206.104 17.536 205.757 17.632 205.459 17.824C205.16 18.0053 204.925 18.288 204.755 18.672C204.595 19.0453 204.515 19.5147 204.515 20.08C204.515 20.9227 204.696 21.5627 205.059 22C205.421 22.4267 205.901 22.64 206.499 22.64ZM213.173 24.128C212.853 24.128 212.608 24.0427 212.437 23.872C212.267 23.6907 212.181 23.4347 212.181 23.104V17.056C212.181 16.7253 212.267 16.4747 212.437 16.304C212.608 16.1333 212.848 16.048 213.157 16.048C213.467 16.048 213.707 16.1333 213.877 16.304C214.048 16.4747 214.133 16.7253 214.133 17.056V18.224L213.957 17.744C214.171 17.2107 214.501 16.7893 214.949 16.48C215.397 16.1707 215.931 16.016 216.549 16.016C217.179 16.016 217.696 16.1653 218.101 16.464C218.507 16.7627 218.789 17.2213 218.949 17.84H218.725C218.939 17.2747 219.291 16.832 219.781 16.512C220.272 16.1813 220.837 16.016 221.477 16.016C222.075 16.016 222.565 16.1333 222.949 16.368C223.344 16.6027 223.637 16.96 223.829 17.44C224.021 17.9093 224.117 18.5067 224.117 19.232V23.104C224.117 23.4347 224.027 23.6907 223.845 23.872C223.675 24.0427 223.429 24.128 223.109 24.128C222.789 24.128 222.544 24.0427 222.373 23.872C222.203 23.6907 222.117 23.4347 222.117 23.104V19.312C222.117 18.7147 222.016 18.2773 221.813 18C221.621 17.7227 221.291 17.584 220.821 17.584C220.299 17.584 219.888 17.7707 219.589 18.144C219.291 18.5067 219.141 19.0133 219.141 19.664V23.104C219.141 23.4347 219.056 23.6907 218.885 23.872C218.715 24.0427 218.469 24.128 218.149 24.128C217.829 24.128 217.579 24.0427 217.397 23.872C217.227 23.6907 217.141 23.4347 217.141 23.104V19.312C217.141 18.7147 217.04 18.2773 216.837 18C216.645 17.7227 216.32 17.584 215.861 17.584C215.339 17.584 214.928 17.7707 214.629 18.144C214.331 18.5067 214.181 19.0133 214.181 19.664V23.104C214.181 23.7867 213.845 24.128 213.173 24.128ZM227.141 24.08C226.778 24.08 226.485 23.968 226.261 23.744C226.047 23.52 225.941 23.232 225.941 22.88C225.941 22.5387 226.047 22.2613 226.261 22.048C226.485 21.824 226.778 21.712 227.141 21.712C227.514 21.712 227.802 21.824 228.005 22.048C228.218 22.2613 228.325 22.5387 228.325 22.88C228.325 23.232 228.218 23.52 228.005 23.744C227.802 23.968 227.514 24.08 227.141 24.08ZM227.141 18.464C226.778 18.464 226.485 18.352 226.261 18.128C226.047 17.904 225.941 17.6213 225.941 17.28C225.941 16.928 226.047 16.6453 226.261 16.432C226.485 16.208 226.778 16.096 227.141 16.096C227.514 16.096 227.802 16.208 228.005 16.432C228.218 16.6453 228.325 16.928 228.325 17.28C228.325 17.6213 228.218 17.904 228.005 18.128C227.802 18.352 227.514 18.464 227.141 18.464Z" fill="#97A2AA"/>
</svg>
